HIERARCHY
ROOT Hips
{
	OFFSET 0.00000 0.00000 0.00000
	CHANNELS 6 Xposition Yposition Zposition Zrotation Yrotation Xrotation 
	JOINT LHipJoint
	{
		OFFSET 0 0 0
		CHANNELS 3 Zrotation Yrotation Xrotation
		JOINT LeftHip
		{
			OFFSET 1.74857 -1.85566 0.69197
			CHANNELS 3 Zrotation Yrotation Xrotation
			JOINT LeftKnee
			{
				OFFSET 2.40003 -6.59403 0.00000
				CHANNELS 3 Zrotation Yrotation Xrotation
				JOINT LeftAnkle
				{
					OFFSET 2.82169 -7.75254 0.00000
					CHANNELS 3 Zrotation Yrotation Xrotation
					JOINT LeftToe
					{
						OFFSET 0.16466 -0.45240 2.26890
						CHANNELS 3 Zrotation Yrotation Xrotation
						End Site
						{
							OFFSET 0.00000 -0.00000 1.16486
						}
					}
				}
			}
		}
	}
	JOINT RHipJoint
	{
		OFFSET 0 0 0
		CHANNELS 3 Zrotation Yrotation Xrotation
		JOINT RightHip
		{
			OFFSET -1.64169 -1.85566 0.69197
			CHANNELS 3 Zrotation Yrotation Xrotation
			JOINT RightKnee
			{
				OFFSET -2.41814 -6.64379 0.00000
				CHANNELS 3 Zrotation Yrotation Xrotation
				JOINT RightAnkle
				{
					OFFSET -2.80588 -7.70911 0.00000
					CHANNELS 3 Zrotation Yrotation Xrotation
					JOINT RightToe
					{
						OFFSET -0.19098 -0.52472 2.25401
						CHANNELS 3 Zrotation Yrotation Xrotation
						End Site
						{
							OFFSET -0.00000 -0.00000 1.16333
						}
					}
				}
			}
		}
	}
	JOINT lowerback
	{
		OFFSET 0 0 0
		CHANNELS 3 Zrotation Yrotation Xrotation
		JOINT Chest
		{
			OFFSET -0.02828 2.14690 -0.11061
			CHANNELS 3 Zrotation Yrotation Xrotation
			JOINT Chest2
			{
				OFFSET -0.00167 2.15299 0.00759
				CHANNELS 3 Zrotation Yrotation Xrotation
				JOINT lowerneck
				{
					OFFSET 0 0 0
					CHANNELS 3 Zrotation Yrotation Xrotation
					JOINT Neck
					{
						OFFSET -0.09296 1.90118 0.07197
						CHANNELS 3 Zrotation Yrotation Xrotation
						JOINT Head
						{
							OFFSET 0.08490 1.89526 -0.24604
							CHANNELS 3 Zrotation Yrotation Xrotation
							End Site
							{
								OFFSET 0.03186 1.92109 -0.09483
							}
						}
					}
				}
				JOINT LeftCollar
				{
					OFFSET 0 0 0
					CHANNELS 3 Zrotation Yrotation Xrotation
					JOINT LeftShoulder
					{
						OFFSET 3.21569 1.44644 -0.03720
CHANNELS 3 Zrotation Xrotation Yrotation
						JOINT LeftElbow
						{
OFFSET 0 -5.476510 -0.000000
CHANNELS 3 Zrotation Xrotation Yrotation
							JOINT LeftWrist
							{
OFFSET 0 -3.090580 -0.000000
CHANNELS 3 Zrotation Xrotation Yrotation
								JOINT lhand
								{
									OFFSET 0 0 0
CHANNELS 3 Zrotation Xrotation Yrotation
									JOINT LFingers
									{
OFFSET 0 -0.771610 -0.000000
CHANNELS 3 Zrotation Xrotation Yrotation
										End Site
										{
OFFSET 0 -0.622090 -0.000000
										}
									}
								}
								JOINT LThumb
								{
OFFSET 0 0.000000 0.000000
CHANNELS 3 Zrotation Xrotation Yrotation
									End Site
									{
OFFSET 0 -0.631590 0.631590
									}
								}
							}
						}
					}
				}
				JOINT RightCollar
				{
					OFFSET 0 0 0
					CHANNELS 3 Zrotation Yrotation Xrotation
					JOINT RightShoulder
					{
						OFFSET -3.38693 1.28904 -0.07093
CHANNELS 3 Zrotation Xrotation Yrotation
						JOINT RightElbow
						{
OFFSET 0 -5.141820 -0.000000
CHANNELS 3 Zrotation Xrotation Yrotation
							JOINT RightWrist
							{
OFFSET 0 -3.355650 -0.000000
CHANNELS 3 Zrotation Xrotation Yrotation
								JOINT rhand
								{
									OFFSET 0 0 0
CHANNELS 3 Zrotation Xrotation Yrotation
									JOINT RFingers
									{
OFFSET 0 -0.801040 -0.000000
CHANNELS 3 Zrotation Xrotation Yrotation
										End Site
										{
OFFSET 0 -0.645820 -0.000000
										}
									}
								}
								JOINT RThumb
								{
OFFSET 0 0.000000 0.000000
CHANNELS 3 Zrotation Xrotation Yrotation
									End Site
									{
OFFSET 0 -0.655680 0.655680
									}
								}
							}
						}
					}
				}
			}
		}
	}
}
MOTION
Frames: 8
Frame Time: 0.008333333333333333
-0.192541 17.968391 -1.901487 1.361559 -0.604801 0.985201 0.000000 0.000000 0.000000 -19.755283 -6.607509 -6.633821 1.641845 8.076366 22.946422 0.824790 4.056184 -19.090656 0.645752 -5.140100 -14.308698 0.000000 0.000000 0.000000 17.355778 5.052678 -9.226228 -1.908163 -8.672073 24.774808 -0.484762 -9.348134 -19.710709 -0.512337 4.588005 -12.737069 2.319399 2.721552 5.737561 -1.428720 3.729444 2.001626 -3.000552 1.875779 -0.905445 -4.625972 -6.222775 -2.910498 5.025949 -8.720599 13.771507 1.830741 -4.213855 5.037139 0.000000 0.000000 0.000000 -5.129796 -42.455295 -111.346747 58.283884 -55.835044 32.917122 33.797668 49.777356 -25.228398 0.000000 0.000000 0.000000 -7.125000 0.000000 0.000000 4.905222 59.465505 -1.735370 0.000000 0.000000 0.000000 14.887564 -45.186456 117.395720 -88.795684 -59.994477 -58.957012 -10.830472 10.904125 -21.066261 0.000000 0.000000 0.000000 7.125000 0.000000 0.000000 11.299605 8.896919 9.609936
-0.200354 17.956549 -1.915994 1.489942 -0.550714 0.947996 0.000000 0.000000 0.000000 -19.847278 -6.639735 -6.882411 1.694531 8.198589 23.318879 0.831998 3.927392 -19.086734 0.688235 -5.303641 -14.776785 0.000000 0.000000 0.000000 17.202242 4.934421 -9.635179 -2.012019 -8.891103 25.455186 -0.551708 -8.920468 -20.001964 -0.431058 4.209882 -11.668443 2.286445 2.678591 5.909403 -1.507094 3.671983 2.130960 -3.064920 1.849553 -0.868508 -4.462673 -6.119198 -2.793157 4.964452 -8.571596 13.431349 1.803595 -4.142111 4.895095 0.000000 0.000000 0.000000 -4.819196 -41.496968 -111.696043 57.271902 -55.538032 32.081285 34.630651 48.028608 -25.576007 0.000000 0.000000 0.000000 -7.125000 0.000000 0.000000 5.852387 60.069490 -2.156391 0.000000 0.000000 0.000000 14.366522 -44.998202 117.146376 -88.402522 -59.990369 -58.616574 -10.803482 10.708469 -21.167041 0.000000 0.000000 0.000000 7.125000 0.000000 0.000000 11.318231 8.799620 9.648844
-0.201617 17.940156 -1.924659 1.551473 -0.710483 1.048988 0.000000 0.000000 0.000000 -19.871808 -6.601171 -7.382847 1.779895 8.391834 23.910633 0.858155 3.846893 -19.299859 0.744060 -5.510154 -15.369481 0.000000 0.000000 0.000000 17.081308 4.952981 -10.169467 -2.090878 -9.052863 25.960793 -0.570666 -8.743675 -20.033713 -0.497575 4.522529 -12.551631 2.163066 2.573890 5.858321 -1.496558 3.524723 2.247785 -2.970032 1.778812 -0.738406 -4.396250 -5.978997 -2.625549 4.945328 -8.366709 12.921309 1.811490 -4.048360 4.696351 0.000000 0.000000 0.000000 -4.222133 -40.791209 -111.900335 55.608390 -55.021264 30.713882 34.777344 43.743609 -24.184758 0.000000 0.000000 0.000000 -7.125000 0.000000 0.000000 6.271700 58.538391 -2.081590 0.000000 0.000000 0.000000 13.877294 -44.934425 117.352728 -88.273872 -59.988712 -58.505156 -11.160607 9.411358 -21.476671 0.000000 0.000000 0.000000 7.125000 0.000000 0.000000 11.098433 8.456551 9.531024
-0.203110 17.922272 -1.950700 1.548978 -0.757091 0.817111 0.000000 0.000000 0.000000 -19.853397 -6.557974 -7.527765 1.859499 8.567067 24.450101 0.880749 3.665238 -19.418001 0.689989 -5.310292 -14.795899 0.000000 0.000000 0.000000 17.078055 4.896639 -10.387166 -2.211950 -9.294178 26.720017 -0.643938 -8.219368 -20.310582 -0.394098 4.026314 -11.151396 2.144218 2.473011 6.382515 -1.420104 3.397814 2.399009 -2.896329 1.714038 -0.888039 -4.425179 -5.907542 -2.537829 4.821309 -8.238462 12.538047 1.793363 -3.998729 4.554152 0.000000 0.000000 0.000000 -3.687012 -40.403788 -112.150322 52.087310 -53.802495 27.850248 34.746225 42.875808 -23.219569 0.000000 0.000000 0.000000 -7.125000 0.000000 0.000000 6.376485 57.435572 -1.948246 0.000000 0.000000 0.000000 13.049246 -45.331012 117.130463 -88.009068 -59.984975 -58.275904 -12.209523 8.466876 -21.119627 0.000000 0.000000 0.000000 7.125000 0.000000 0.000000 10.427771 8.701702 8.882454
-0.195164 17.910091 -1.945764 1.659466 -1.435257 1.021888 0.000000 0.000000 0.000000 -19.964977 -6.241497 -7.999480 1.916904 8.690833 24.832904 0.926047 3.625196 -19.833274 0.653720 -5.171524 -14.398401 0.000000 0.000000 0.000000 16.849265 5.228500 -10.930266 -2.263694 -9.394907 27.038728 -0.638556 -8.068216 -20.126710 -0.506787 4.563431 -12.667502 1.948091 2.544891 6.016494 -1.341382 3.477393 2.483495 -2.688318 1.757326 -0.609803 -4.441156 -5.784103 -2.632795 4.466689 -8.018486 12.406616 1.699109 -3.909836 4.505994 0.000000 0.000000 0.000000 -2.626622 -40.377731 -111.814434 47.902726 -52.111962 24.509416 33.353975 41.732669 -23.054689 0.000000 0.000000 0.000000 -7.125000 0.000000 0.000000 4.788304 56.915661 -1.400082 0.000000 0.000000 0.000000 11.988764 -46.479751 116.555034 -87.091343 -59.967889 -57.481250 -13.541578 7.681828 -20.751743 0.000000 0.000000 0.000000 7.125000 0.000000 0.000000 9.571297 8.924782 8.087219
-0.192018 17.899075 -1.961683 1.669829 -1.939999 1.044820 0.000000 0.000000 0.000000 -19.970615 -6.032284 -8.292047 1.965928 8.794760 25.155323 0.925227 3.789518 -19.917627 0.688904 -5.306357 -14.784375 0.000000 0.000000 0.000000 16.792415 5.478561 -11.309613 -2.333054 -9.527849 27.460817 -0.653766 -7.781460 -20.036730 -0.550736 4.754050 -13.208421 1.680455 2.507992 6.041913 -1.133752 3.415371 2.521265 -2.322023 1.723301 -0.617795 -4.589454 -5.594835 -2.851762 4.203027 -7.713605 12.428402 1.652743 -3.777436 4.531001 0.000000 0.000000 0.000000 -0.300170 -40.584213 -109.834017 43.350449 -49.932997 20.968972 33.212094 40.238138 -22.541185 0.000000 0.000000 0.000000 -7.125000 0.000000 0.000000 4.710623 56.303349 -1.306909 0.000000 0.000000 0.000000 9.951117 -48.237401 114.335280 -83.678776 -59.848049 -54.528446 -15.596275 6.352044 -21.482515 0.000000 0.000000 0.000000 7.125000 0.000000 0.000000 8.295600 7.944379 7.146124
-0.184964 17.887829 -1.965801 1.651855 -2.231160 0.965623 0.000000 0.000000 0.000000 -19.986391 -5.980474 -8.400939 2.022223 8.912247 25.521246 0.966248 3.718167 -20.265269 0.629104 -5.074964 -14.122538 0.000000 0.000000 0.000000 16.760414 5.508887 -11.484380 -2.395104 -9.644658 27.833575 -0.684607 -7.449612 -20.072969 -0.544405 4.726703 -13.130838 1.293130 2.298122 6.061535 -0.760261 3.118620 2.520903 -1.705797 1.569418 -0.687086 -4.813701 -5.309007 -2.975136 3.749622 -7.249058 12.328908 1.574212 -3.582474 4.492369 0.000000 0.000000 0.000000 3.381751 -39.574017 -102.842332 40.619272 -48.432134 18.901396 32.286297 39.902277 -23.660496 0.000000 0.000000 0.000000 -7.125000 0.000000 0.000000 3.451590 57.343443 -1.044888 0.000000 0.000000 0.000000 5.954951 -49.706513 108.753017 -77.563910 -59.406571 -49.251518 -18.084074 5.352299 -21.139187 0.000000 0.000000 0.000000 7.125000 0.000000 0.000000 6.696699 7.969619 5.744008
-0.176552 17.876736 -1.972944 1.874328 -2.506464 0.894120 0.000000 0.000000 0.000000 -20.252349 -5.790281 -8.514516 2.058124 8.986236 25.752099 0.987340 3.771797 -20.491667 0.654854 -5.175873 -14.410767 0.000000 0.000000 0.000000 16.450370 5.499345 -11.754801 -2.462969 -9.770291 28.236005 -0.717325 -7.065496 -20.092730 -0.560393 4.794910 -13.324516 0.729689 2.218855 6.081025 -0.528961 2.984279 2.501251 -1.147462 1.496835 -0.765121 -5.184302 -5.248838 -3.300971 3.644761 -7.116801 12.417757 1.598430 -3.535735 4.578419 0.000000 0.000000 0.000000 8.391259 -38.168145 -93.107941 39.483231 -47.760670 18.055707 33.496657 39.416494 -24.284356 0.000000 0.000000 0.000000 -7.125000 0.000000 0.000000 4.733865 58.332719 -1.546021 0.000000 0.000000 0.000000 -0.865587 -50.490261 97.995957 -68.538815 -58.185494 -41.527353 -19.255927 5.796593 -21.297520 0.000000 0.000000 0.000000 7.125000 0.000000 0.000000 5.962569 7.642511 5.145332
